STARTFONT 2.1
COMMENT Copyright (C) 1990-1991 EWT Consulting
COMMENT Portions Copyright (C) 1994-1995 Cronyx Ltd.
COMMENT Changes Copyright (C) 1996-1997 by Andrey A. Chernov, Moscow, Russia.
COMMENT Modified by Serge Vakulenko, <vak@cronyx.ru>
COMMENT Changes 1999 by Serge Winitzki.
COMMENT This software may be used, modified, copied, distributed, and sold,
COMMENT in both source and binary form provided that the copyright
COMMENT and these terms are retained. Under no circumstances is the author
COMMENT responsible for the proper functioning of this software, nor does
COMMENT the author assume any responsibility for damages incurred with its use.
COMMENT $XFree86$
FONT -Cronyx-Courier-Bold-R-Normal--17-120-100-100-M-90-KOI8-R
SIZE 12 96 96
FONTBOUNDINGBOX 10 15 0 -3
STARTPROPERTIES 21
DEFAULT_CHAR 32
FONT_ASCENT 13
FONT_DESCENT 3
SPACING "M"
FONTNAME_REGISTRY ""
FOUNDRY "Cronyx"
FAMILY_NAME "Courier"
WEIGHT_NAME "Bold"
SLANT "R"
SETWIDTH_NAME "Normal"
ADD_STYLE_NAME ""
AVERAGE_WIDTH 90
CHARSET_REGISTRY "KOI8"
CHARSET_ENCODING "R"
PIXEL_SIZE 17
POINT_SIZE 120
RESOLUTION_X 100
RESOLUTION_Y 100
COPYRIGHT "Copyright (C) 1990, 1991 EWT Consulting, Portions Copyright (C) 1994 Cronyx Ltd., Portions Copyright (C) 1996-1997 by Andrey A. Chernov, Moscow, Russia."
_XMBDFED_INFO "Edited with xmbdfed 4.3."
_XFREE86_GLYPH_RANGES "32_126 149 154 156_158 163 179 191_255"
ENDPROPERTIES
CHARS 167
STARTCHAR space
ENCODING 32
SWIDTH 625 0
DWIDTH 10 0
BBX 0 0 0 0
BITMAP
ENDCHAR
STARTCHAR exclam
ENCODING 33
SWIDTH 1000 0
DWIDTH 10 0
BBX 2 10 4 0
BITMAP
C0
C0
C0
C0
C0
C0
C0
C0
00
C0
ENDCHAR
STARTCHAR quotedbl
ENCODING 34
SWIDTH 2500 0
DWIDTH 10 0
BBX 5 4 3 6
BITMAP
D8
D8
D8
D8
ENDCHAR
STARTCHAR numbersign
ENCODING 35
SWIDTH 1000 0
DWIDTH 10 0
BBX 9 10 1 0
BITMAP
1B00
1B00
1B00
7F80
3600
3600
FF00
6C00
6C00
6C00
ENDCHAR
STARTCHAR dollar
ENCODING 36
SWIDTH 833 0
DWIDTH 10 0
BBX 8 12 1 -2
BITMAP
18
7E
C3
C0
C0
7E
03
03
C3
7E
18
18
ENDCHAR
STARTCHAR percent
ENCODING 37
SWIDTH 1000 0
DWIDTH 10 0
BBX 9 10 1 0
BITMAP
7000
D980
7300
0600
0C00
1800
3000
6700
CD80
0700
ENDCHAR
STARTCHAR ampersand
ENCODING 38
SWIDTH 1000 0
DWIDTH 10 0
BBX 9 10 1 0
BITMAP
3C00
6600
6000
6000
3000
7800
CD80
C700
C700
7D80
ENDCHAR
STARTCHAR quotesingle
ENCODING 39
SWIDTH 2500 0
DWIDTH 10 0
BBX 2 4 4 6
BITMAP
C0
C0
C0
C0
ENDCHAR
STARTCHAR parenleft
ENCODING 40
SWIDTH 769 0
DWIDTH 10 0
BBX 4 13 4 -3
BITMAP
30
60
60
C0
C0
C0
C0
C0
C0
C0
60
60
30
ENDCHAR
STARTCHAR parenright
ENCODING 41
SWIDTH 769 0
DWIDTH 10 0
BBX 4 13 3 -3
BITMAP
C0
60
60
30
30
30
30
30
30
30
60
60
C0
ENDCHAR
STARTCHAR asterisk
ENCODING 42
SWIDTH 2000 0
DWIDTH 10 0
BBX 8 5 1 3
BITMAP
7E
3C
FF
3C
7E
ENDCHAR
STARTCHAR plus
ENCODING 43
SWIDTH 1429 0
DWIDTH 10 0
BBX 8 7 1 1
BITMAP
18
18
18
FF
18
18
18
ENDCHAR
STARTCHAR comma
ENCODING 44
SWIDTH 3333 0
DWIDTH 10 0
BBX 5 3 3 -1
BITMAP
78
70
E0
ENDCHAR
STARTCHAR hyphen
ENCODING 45
SWIDTH 10000 0
DWIDTH 10 0
BBX 7 1 2 4
BITMAP
FE
ENDCHAR
STARTCHAR period
ENCODING 46
SWIDTH 5000 0
DWIDTH 10 0
BBX 3 2 4 0
BITMAP
E0
E0
ENDCHAR
STARTCHAR slash
ENCODING 47
SWIDTH 1250 0
DWIDTH 10 0
BBX 9 8 1 1
BITMAP
0180
0300
0600
0C00
1800
3000
6000
C000
ENDCHAR
STARTCHAR zero
ENCODING 48
SWIDTH 1000 0
DWIDTH 10 0
BBX 7 10 2 0
BITMAP
7C
C6
C6
C6
C6
C6
C6
C6
C6
7C
ENDCHAR
STARTCHAR one
ENCODING 49
SWIDTH 1000 0
DWIDTH 10 0
BBX 6 10 3 0
BITMAP
30
F0
30
30
30
30
30
30
30
FC
ENDCHAR
STARTCHAR two
ENCODING 50
SWIDTH 1000 0
DWIDTH 10 0
BBX 7 10 2 0
BITMAP
7C
C6
06
06
0C
18
30
60
C0
FE
ENDCHAR
STARTCHAR three
ENCODING 51
SWIDTH 1000 0
DWIDTH 10 0
BBX 7 10 2 0
BITMAP
7C
C6
06
06
3C
06
06
06
C6
7C
ENDCHAR
STARTCHAR four
ENCODING 52
SWIDTH 1000 0
DWIDTH 10 0
BBX 7 10 2 0
BITMAP
0C
1C
3C
3C
6C
CC
FE
0C
0C
1E
ENDCHAR
STARTCHAR five
ENCODING 53
SWIDTH 1000 0
DWIDTH 10 0
BBX 7 10 2 0
BITMAP
FE
C0
C0
C0
FC
06
06
06
C6
7C
ENDCHAR
STARTCHAR six
ENCODING 54
SWIDTH 1000 0
DWIDTH 10 0
BBX 7 10 2 0
BITMAP
3C
60
C0
C0
FC
E6
C6
C6
C6
7C
ENDCHAR
STARTCHAR seven
ENCODING 55
SWIDTH 1000 0
DWIDTH 10 0
BBX 7 10 2 0
BITMAP
FE
C6
0C
0C
18
18
30
30
60
60
ENDCHAR
STARTCHAR eight
ENCODING 56
SWIDTH 1000 0
DWIDTH 10 0
BBX 7 10 2 0
BITMAP
7C
C6
C6
C6
7C
C6
C6
C6
C6
7C
ENDCHAR
STARTCHAR nine
ENCODING 57
SWIDTH 1000 0
DWIDTH 10 0
BBX 7 10 2 0
BITMAP
7C
C6
C6
C6
CE
7E
06
06
0C
78
ENDCHAR
STARTCHAR colon
ENCODING 58
SWIDTH 1429 0
DWIDTH 10 0
BBX 3 7 4 0
BITMAP
E0
E0
00
00
00
E0
E0
ENDCHAR
STARTCHAR semicolon
ENCODING 59
SWIDTH 1250 0
DWIDTH 10 0
BBX 5 8 3 -1
BITMAP
70
70
00
00
00
78
70
E0
ENDCHAR
STARTCHAR less
ENCODING 60
SWIDTH 1111 0
DWIDTH 10 0
BBX 6 9 2 0
BITMAP
0C
18
30
60
C0
60
30
18
0C
ENDCHAR
STARTCHAR equal
ENCODING 61
SWIDTH 3333 0
DWIDTH 10 0
BBX 7 3 2 3
BITMAP
FE
00
FE
ENDCHAR
STARTCHAR greater
ENCODING 62
SWIDTH 1111 0
DWIDTH 10 0
BBX 6 9 2 0
BITMAP
C0
60
30
18
0C
18
30
60
C0
ENDCHAR
STARTCHAR question
ENCODING 63
SWIDTH 1000 0
DWIDTH 10 0
BBX 7 10 2 0
BITMAP
7C
C6
06
06
0C
18
30
30
00
30
ENDCHAR
STARTCHAR at
ENCODING 64
SWIDTH 909 0
DWIDTH 10 0
BBX 9 11 1 -1
BITMAP
3E00
6300
C180
DF80
F780
F780
F780
DF00
C000
6000
3F00
ENDCHAR
STARTCHAR A
ENCODING 65
SWIDTH 1000 0
DWIDTH 10 0
BBX 10 10 0 0
BITMAP
3C00
0C00
1E00
1E00
3300
3300
3F00
6180
6180
F3C0
ENDCHAR
STARTCHAR B
ENCODING 66
SWIDTH 1000 0
DWIDTH 10 0
BBX 8 10 1 0
BITMAP
FE
63
63
63
7E
63
63
63
63
FE
ENDCHAR
STARTCHAR C
ENCODING 67
SWIDTH 1000 0
DWIDTH 10 0
BBX 8 10 1 0
BITMAP
3F
67
C3
C3
C0
C0
C0
C0
63
3E
ENDCHAR
STARTCHAR D
ENCODING 68
SWIDTH 1000 0
DWIDTH 10 0
BBX 8 10 1 0
BITMAP
FC
66
63
63
63
63
63
63
66
FC
ENDCHAR
STARTCHAR E
ENCODING 69
SWIDTH 1000 0
DWIDTH 10 0
BBX 8 10 1 0
BITMAP
FF
63
60
6C
7C
6C
60
60
63
FF
ENDCHAR
STARTCHAR F
ENCODING 70
SWIDTH 1000 0
DWIDTH 10 0
BBX 8 10 1 0
BITMAP
FF
63
60
6C
7C
6C
60
60
60
F8
ENDCHAR
STARTCHAR G
ENCODING 71
SWIDTH 1000 0
DWIDTH 10 0
BBX 9 10 1 0
BITMAP
3F00
6700
C300
C300
C000
CF80
C300
C300
6300
3E00
ENDCHAR
STARTCHAR H
ENCODING 72
SWIDTH 1000 0
DWIDTH 10 0
BBX 10 10 0 0
BITMAP
F3C0
6180
6180
6180
7F80
6180
6180
6180
6180
F3C0
ENDCHAR
STARTCHAR I
ENCODING 73
SWIDTH 1000 0
DWIDTH 10 0
BBX 6 10 2 0
BITMAP
FC
30
30
30
30
30
30
30
30
FC
ENDCHAR
STARTCHAR J
ENCODING 74
SWIDTH 1000 0
DWIDTH 10 0
BBX 9 10 1 0
BITMAP
1F80
0600
0600
0600
0600
0600
0600
C600
C600
7C00
ENDCHAR
STARTCHAR K
ENCODING 75
SWIDTH 1000 0
DWIDTH 10 0
BBX 9 10 1 0
BITMAP
FF00
6600
6C00
6C00
7800
7800
6C00
6600
6300
F380
ENDCHAR
STARTCHAR L
ENCODING 76
SWIDTH 1000 0
DWIDTH 10 0
BBX 8 10 1 0
BITMAP
F8
60
60
60
60
60
60
60
63
FF
ENDCHAR
STARTCHAR M
ENCODING 77
SWIDTH 1000 0
DWIDTH 10 0
BBX 10 10 0 0
BITMAP
E1C0
6180
7380
7380
7F80
7F80
6D80
6D80
6180
F3C0
ENDCHAR
STARTCHAR N
ENCODING 78
SWIDTH 1000 0
DWIDTH 10 0
BBX 10 10 0 0
BITMAP
E7C0
6180
7180
7980
7980
6D80
6780
6780
6380
F980
ENDCHAR
STARTCHAR O
ENCODING 79
SWIDTH 1000 0
DWIDTH 10 0
BBX 8 10 1 0
BITMAP
3C
66
C3
C3
C3
C3
C3
C3
66
3C
ENDCHAR
STARTCHAR P
ENCODING 80
SWIDTH 1000 0
DWIDTH 10 0
BBX 8 10 1 0
BITMAP
FE
63
63
63
63
7E
60
60
60
F8
ENDCHAR
STARTCHAR Q
ENCODING 81
SWIDTH 833 0
DWIDTH 10 0
BBX 8 12 1 -2
BITMAP
3C
66
C3
C3
C3
C3
C3
C3
66
3C
1C
77
ENDCHAR
STARTCHAR R
ENCODING 82
SWIDTH 1000 0
DWIDTH 10 0
BBX 9 10 1 0
BITMAP
FE00
6300
6300
6300
6300
7E00
6C00
6600
6300
F380
ENDCHAR
STARTCHAR S
ENCODING 83
SWIDTH 1000 0
DWIDTH 10 0
BBX 8 10 1 0
BITMAP
7F
C7
C3
C0
78
0E
03
C3
E3
FE
ENDCHAR
STARTCHAR T
ENCODING 84
SWIDTH 1000 0
DWIDTH 10 0
BBX 10 10 0 0
BITMAP
FFC0
CCC0
0C00
0C00
0C00
0C00
0C00
0C00
0C00
3F00
ENDCHAR
STARTCHAR U
ENCODING 85
SWIDTH 1000 0
DWIDTH 10 0
BBX 10 10 0 0
BITMAP
F3C0
6180
6180
6180
6180
6180
6180
6180
7380
1E00
ENDCHAR
STARTCHAR V
ENCODING 86
SWIDTH 1000 0
DWIDTH 10 0
BBX 10 10 0 0
BITMAP
F3C0
6180
6180
3300
3300
3300
1E00
1E00
0C00
0C00
ENDCHAR
STARTCHAR W
ENCODING 87
SWIDTH 1000 0
DWIDTH 10 0
BBX 10 10 0 0
BITMAP
E1C0
C0C0
CCC0
CCC0
7F80
7F80
7F80
3300
3300
3300
ENDCHAR
STARTCHAR X
ENCODING 88
SWIDTH 1000 0
DWIDTH 10 0
BBX 10 10 0 0
BITMAP
F3C0
6180
3300
1E00
0C00
0C00
1E00
3300
6180
F3C0
ENDCHAR
STARTCHAR Y
ENCODING 89
SWIDTH 1000 0
DWIDTH 10 0
BBX 10 10 0 0
BITMAP
F3C0
6180
3300
3300
1E00
0C00
0C00
0C00
0C00
3F00
ENDCHAR
STARTCHAR Z
ENCODING 90
SWIDTH 1000 0
DWIDTH 10 0
BBX 8 10 1 0
BITMAP
FF
C3
06
0C
18
18
30
60
C3
FF
ENDCHAR
STARTCHAR bracketleft
ENCODING 91
SWIDTH 769 0
DWIDTH 10 0
BBX 4 13 4 -3
BITMAP
F0
C0
C0
C0
C0
C0
C0
C0
C0
C0
C0
C0
F0
ENDCHAR
STARTCHAR backslash
ENCODING 92
SWIDTH 1250 0
DWIDTH 10 0
BBX 9 8 1 1
BITMAP
C000
6000
3000
1800
0C00
0600
0300
0180
ENDCHAR
STARTCHAR bracketright
ENCODING 93
SWIDTH 769 0
DWIDTH 10 0
BBX 4 13 3 -3
BITMAP
F0
30
30
30
30
30
30
30
30
30
30
30
F0
ENDCHAR
STARTCHAR asciicircum
ENCODING 94
SWIDTH 2500 0
DWIDTH 10 0
BBX 8 4 1 6
BITMAP
18
3C
66
C3
ENDCHAR
STARTCHAR underscore
ENCODING 95
SWIDTH 10000 0
DWIDTH 10 0
BBX 10 1 0 -2
BITMAP
FFC0
ENDCHAR
STARTCHAR grave
ENCODING 96
SWIDTH 5000 0
DWIDTH 10 0
BBX 3 2 3 8
BITMAP
C0
60
ENDCHAR
STARTCHAR a
ENCODING 97
SWIDTH 1429 0
DWIDTH 10 0
BBX 8 7 1 0
BITMAP
7C
06
7E
C6
C6
C6
7F
ENDCHAR
STARTCHAR b
ENCODING 98
SWIDTH 1000 0
DWIDTH 10 0
BBX 8 10 1 0
BITMAP
E0
60
60
7C
77
63
63
63
77
FC
ENDCHAR
STARTCHAR c
ENCODING 99
SWIDTH 1429 0
DWIDTH 10 0
BBX 8 7 1 0
BITMAP
3F
E7
C0
C0
C0
E7
3C
ENDCHAR
STARTCHAR d
ENCODING 100
SWIDTH 1000 0
DWIDTH 10 0
BBX 8 10 1 0
BITMAP
0E
06
06
3E
EE
C6
C6
C6
EE
3F
ENDCHAR
STARTCHAR e
ENCODING 101
SWIDTH 1429 0
DWIDTH 10 0
BBX 8 7 1 0
BITMAP
3C
E7
C3
FF
C0
E7
3C
ENDCHAR
STARTCHAR f
ENCODING 102
SWIDTH 1000 0
DWIDTH 10 0
BBX 7 10 2 0
BITMAP
3C
66
60
60
F8
60
60
60
60
F8
ENDCHAR
STARTCHAR g
ENCODING 103
SWIDTH 1000 0
DWIDTH 10 0
BBX 8 10 1 -3
BITMAP
3F
EE
C6
C6
EE
3E
06
C6
C6
7C
ENDCHAR
STARTCHAR h
ENCODING 104
SWIDTH 1000 0
DWIDTH 10 0
BBX 8 10 1 0
BITMAP
E0
60
60
7C
76
66
66
66
66
FF
ENDCHAR
STARTCHAR i
ENCODING 105
SWIDTH 1000 0
DWIDTH 10 0
BBX 6 10 2 0
BITMAP
30
00
00
F0
30
30
30
30
30
FC
ENDCHAR
STARTCHAR j
ENCODING 106
SWIDTH 769 0
DWIDTH 10 0
BBX 6 13 1 -3
BITMAP
0C
00
00
3C
0C
0C
0C
0C
0C
0C
0C
CC
78
ENDCHAR
STARTCHAR k
ENCODING 107
SWIDTH 1000 0
DWIDTH 10 0
BBX 8 10 1 0
BITMAP
E0
60
60
6F
6C
78
78
6C
66
FF
ENDCHAR
STARTCHAR l
ENCODING 108
SWIDTH 1000 0
DWIDTH 10 0
BBX 6 10 2 0
BITMAP
F0
30
30
30
30
30
30
30
30
FC
ENDCHAR
STARTCHAR m
ENCODING 109
SWIDTH 1429 0
DWIDTH 10 0
BBX 10 7 0 0
BITMAP
FF80
7F80
6D80
6D80
6D80
6D80
FFC0
ENDCHAR
STARTCHAR n
ENCODING 110
SWIDTH 1429 0
DWIDTH 10 0
BBX 8 7 1 0
BITMAP
FC
76
66
66
66
66
FF
ENDCHAR
STARTCHAR o
ENCODING 111
SWIDTH 1429 0
DWIDTH 10 0
BBX 8 7 1 0
BITMAP
3C
E7
C3
C3
C3
E7
3C
ENDCHAR
STARTCHAR p
ENCODING 112
SWIDTH 1000 0
DWIDTH 10 0
BBX 8 10 1 -3
BITMAP
FC
77
63
63
63
77
7C
60
60
F8
ENDCHAR
STARTCHAR q
ENCODING 113
SWIDTH 1000 0
DWIDTH 10 0
BBX 8 10 1 -3
BITMAP
3F
EE
C6
C6
C6
EE
3E
06
06
1F
ENDCHAR
STARTCHAR r
ENCODING 114
SWIDTH 1429 0
DWIDTH 10 0
BBX 9 7 1 0
BITMAP
FF00
3980
3000
3000
3000
3000
FC00
ENDCHAR
STARTCHAR s
ENCODING 115
SWIDTH 1429 0
DWIDTH 10 0
BBX 8 7 1 0
BITMAP
7E
C3
C0
7E
03
C3
7E
ENDCHAR
STARTCHAR t
ENCODING 116
SWIDTH 1111 0
DWIDTH 10 0
BBX 8 9 1 0
BITMAP
30
30
FE
30
30
30
30
33
1E
ENDCHAR
STARTCHAR u
ENCODING 117
SWIDTH 1429 0
DWIDTH 10 0
BBX 8 7 1 0
BITMAP
EE
66
66
66
66
6E
3F
ENDCHAR
STARTCHAR v
ENCODING 118
SWIDTH 1429 0
DWIDTH 10 0
BBX 10 7 0 0
BITMAP
F3C0
6180
3300
3300
1E00
1E00
0C00
ENDCHAR
STARTCHAR w
ENCODING 119
SWIDTH 1429 0
DWIDTH 10 0
BBX 10 7 0 0
BITMAP
FFC0
6D80
7F80
7F80
7F80
3300
3300
ENDCHAR
STARTCHAR x
ENCODING 120
SWIDTH 1429 0
DWIDTH 10 0
BBX 8 7 1 0
BITMAP
FF
66
3C
18
3C
66
FF
ENDCHAR
STARTCHAR y
ENCODING 121
SWIDTH 1000 0
DWIDTH 10 0
BBX 10 10 0 -3
BITMAP
F3C0
6180
3300
3300
1E00
1E00
0C00
0C00
1800
7000
ENDCHAR
STARTCHAR z
ENCODING 122
SWIDTH 1429 0
DWIDTH 10 0
BBX 8 7 1 0
BITMAP
FF
C6
0C
18
30
63
FF
ENDCHAR
STARTCHAR braceleft
ENCODING 123
SWIDTH 769 0
DWIDTH 10 0
BBX 6 13 2 -3
BITMAP
1C
30
30
30
30
30
E0
30
30
30
30
30
1C
ENDCHAR
STARTCHAR bar
ENCODING 124
SWIDTH 769 0
DWIDTH 10 0
BBX 2 13 4 -3
BITMAP
C0
C0
C0
C0
C0
C0
C0
C0
C0
C0
C0
C0
C0
ENDCHAR
STARTCHAR braceright
ENCODING 125
SWIDTH 769 0
DWIDTH 10 0
BBX 6 13 3 -3
BITMAP
E0
30
30
30
30
30
1C
30
30
30
30
30
E0
ENDCHAR
STARTCHAR asciitilde
ENCODING 126
SWIDTH 3333 0
DWIDTH 10 0
BBX 8 3 1 7
BITMAP
73
DB
CE
ENDCHAR
STARTCHAR bullet
ENCODING 149
SWIDTH 2500 0
DWIDTH 10 0
BBX 6 4 2 3
BITMAP
78
FC
FC
78
ENDCHAR
STARTCHAR space
ENCODING 154
SWIDTH 625 0
DWIDTH 10 0
BBX 0 0 0 0
BITMAP
ENDCHAR
STARTCHAR degree
ENCODING 156
SWIDTH 2500 0
DWIDTH 10 0
BBX 5 4 3 6
BITMAP
70
D8
D8
70
ENDCHAR
STARTCHAR twosuperior
ENCODING 157
SWIDTH 1667 0
DWIDTH 10 0
BBX 5 6 3 4
BITMAP
70
D8
18
30
60
F8
ENDCHAR
STARTCHAR periodcentered
ENCODING 158
SWIDTH 5000 0
DWIDTH 10 0
BBX 3 2 3 3
BITMAP
E0
E0
ENDCHAR
STARTCHAR afii10071
ENCODING 163
SWIDTH 1111 0
DWIDTH 10 0
BBX 8 9 1 0
BITMAP
7E
00
3C
E7
C3
FF
C0
E7
3C
ENDCHAR
STARTCHAR afii10023
ENCODING 179
SWIDTH 833 0
DWIDTH 10 0
BBX 8 12 1 0
BITMAP
7E
00
FF
63
60
6C
7C
6C
60
60
63
FF
ENDCHAR
STARTCHAR copyright
ENCODING 191
SWIDTH 1000 0
DWIDTH 10 0
BBX 9 10 1 1
BITMAP
3E00
6300
DD80
F780
F180
F180
F780
DD80
6300
3E00
ENDCHAR
STARTCHAR afii10096
ENCODING 192
SWIDTH 1429 0
DWIDTH 10 0
BBX 10 7 0 0
BITMAP
F780
6CC0
6CC0
7CC0
6CC0
6CC0
F780
ENDCHAR
STARTCHAR afii10065
ENCODING 193
SWIDTH 1429 0
DWIDTH 10 0
BBX 8 7 1 0
BITMAP
7C
06
7E
C6
C6
C6
7F
ENDCHAR
STARTCHAR afii10066
ENCODING 194
SWIDTH 1000 0
DWIDTH 10 0
BBX 7 10 2 0
BITMAP
0E
78
C0
FC
E6
C6
C6
C6
C6
7C
ENDCHAR
STARTCHAR afii10088
ENCODING 195
SWIDTH 1111 0
DWIDTH 10 0
BBX 9 9 1 -2
BITMAP
F780
6300
6300
6300
6300
6300
FF80
0180
0180
ENDCHAR
STARTCHAR afii10069
ENCODING 196
SWIDTH 1111 0
DWIDTH 10 0
BBX 9 9 1 -2
BITMAP
7F80
3300
3300
3300
3300
6300
FF80
C180
C180
ENDCHAR
STARTCHAR afii10070
ENCODING 197
SWIDTH 1429 0
DWIDTH 10 0
BBX 8 7 1 0
BITMAP
3C
E7
C3
FF
C0
E7
3C
ENDCHAR
STARTCHAR afii10086
ENCODING 198
SWIDTH 833 0
DWIDTH 10 0
BBX 8 12 1 -3
BITMAP
3C
18
7E
DB
DB
DB
DB
DB
7E
18
18
3C
ENDCHAR
STARTCHAR afii10068
ENCODING 199
SWIDTH 1429 0
DWIDTH 10 0
BBX 8 7 1 0
BITMAP
FF
63
60
60
60
60
F0
ENDCHAR
STARTCHAR afii10087
ENCODING 200
SWIDTH 1429 0
DWIDTH 10 0
BBX 8 7 1 0
BITMAP
FF
66
3C
18
3C
66
FF
ENDCHAR
STARTCHAR afii10074
ENCODING 201
SWIDTH 1429 0
DWIDTH 10 0
BBX 9 7 1 0
BITMAP
F780
6300
6700
6F00
7B00
7300
F780
ENDCHAR
STARTCHAR afii10075
ENCODING 202
SWIDTH 1000 0
DWIDTH 10 0
BBX 9 10 1 0
BITMAP
3600
1C00
0000
F780
6300
6700
6F00
7B00
7300
F780
ENDCHAR
STARTCHAR afii10076
ENCODING 203
SWIDTH 1429 0
DWIDTH 10 0
BBX 8 7 1 0
BITMAP
FF
6C
78
78
6C
66
FF
ENDCHAR
STARTCHAR afii10077
ENCODING 204
SWIDTH 1429 0
DWIDTH 10 0
BBX 9 7 1 0
BITMAP
7F80
3300
3300
3300
3300
F300
E780
ENDCHAR
STARTCHAR afii10078
ENCODING 205
SWIDTH 1429 0
DWIDTH 10 0
BBX 10 7 0 0
BITMAP
E1C0
7380
7F80
6D80
6D80
6180
F3C0
ENDCHAR
STARTCHAR afii10079
ENCODING 206
SWIDTH 1429 0
DWIDTH 10 0
BBX 9 7 1 0
BITMAP
F780
6300
6300
7F00
6300
6300
F780
ENDCHAR
STARTCHAR afii10080
ENCODING 207
SWIDTH 1429 0
DWIDTH 10 0
BBX 8 7 1 0
BITMAP
3C
E7
C3
C3
C3
E7
3C
ENDCHAR
STARTCHAR afii10081
ENCODING 208
SWIDTH 1429 0
DWIDTH 10 0
BBX 9 7 1 0
BITMAP
FF80
6300
6300
6300
6300
6300
F780
ENDCHAR
STARTCHAR afii10097
ENCODING 209
SWIDTH 1429 0
DWIDTH 10 0
BBX 9 7 1 0
BITMAP
3F80
6300
6300
3F00
3300
6300
E780
ENDCHAR
STARTCHAR afii10082
ENCODING 210
SWIDTH 1000 0
DWIDTH 10 0
BBX 8 10 1 -3
BITMAP
FC
76
63
63
63
76
7C
60
60
F8
ENDCHAR
STARTCHAR afii10083
ENCODING 211
SWIDTH 1429 0
DWIDTH 10 0
BBX 8 7 1 0
BITMAP
3F
E7
C0
C0
C0
E7
3C
ENDCHAR
STARTCHAR afii10084
ENCODING 212
SWIDTH 1429 0
DWIDTH 10 0
BBX 8 7 1 0
BITMAP
FF
DB
18
18
18
18
3C
ENDCHAR
STARTCHAR afii10085
ENCODING 213
SWIDTH 1000 0
DWIDTH 10 0
BBX 10 10 0 -3
BITMAP
F3C0
6180
3300
3300
1E00
1E00
0C00
0C00
1800
7000
ENDCHAR
STARTCHAR afii10072
ENCODING 214
SWIDTH 1429 0
DWIDTH 10 0
BBX 10 7 0 0
BITMAP
EDC0
6D80
3F00
1E00
3F00
6D80
EDC0
ENDCHAR
STARTCHAR afii10067
ENCODING 215
SWIDTH 1429 0
DWIDTH 10 0
BBX 8 7 1 0
BITMAP
FE
63
63
7E
63
63
FE
ENDCHAR
STARTCHAR afii10094
ENCODING 216
SWIDTH 1429 0
DWIDTH 10 0
BBX 8 7 1 0
BITMAP
F0
60
7E
63
63
63
FE
ENDCHAR
STARTCHAR afii10093
ENCODING 217
SWIDTH 1429 0
DWIDTH 10 0
BBX 10 7 0 0
BITMAP
F3C0
6180
7D80
6780
6780
6780
FFC0
ENDCHAR
STARTCHAR afii10073
ENCODING 218
SWIDTH 1429 0
DWIDTH 10 0
BBX 8 7 1 0
BITMAP
FE
C3
03
3E
03
C3
7E
ENDCHAR
STARTCHAR afii10090
ENCODING 219
SWIDTH 1429 0
DWIDTH 10 0
BBX 10 7 0 0
BITMAP
FFC0
6D80
6D80
6D80
6D80
6D80
FFC0
ENDCHAR
STARTCHAR afii10095
ENCODING 220
SWIDTH 1429 0
DWIDTH 10 0
BBX 8 7 1 0
BITMAP
7E
C3
03
1F
03
C3
7E
ENDCHAR
STARTCHAR afii10091
ENCODING 221
SWIDTH 1111 0
DWIDTH 10 0
BBX 10 9 0 -2
BITMAP
FFC0
6D80
6D80
6D80
6D80
6D80
FFC0
00C0
00C0
ENDCHAR
STARTCHAR afii10089
ENCODING 222
SWIDTH 1429 0
DWIDTH 10 0
BBX 9 7 1 0
BITMAP
F780
6300
6300
6700
3F00
0300
0780
ENDCHAR
STARTCHAR afii10092
ENCODING 223
SWIDTH 1429 0
DWIDTH 10 0
BBX 8 7 1 0
BITMAP
F8
F0
3E
33
33
33
7E
ENDCHAR
STARTCHAR afii10048
ENCODING 224
SWIDTH 1000 0
DWIDTH 10 0
BBX 10 10 0 0
BITMAP
F780
6CC0
6CC0
6CC0
7CC0
6CC0
6CC0
6CC0
6CC0
F780
ENDCHAR
STARTCHAR afii10017
ENCODING 225
SWIDTH 1000 0
DWIDTH 10 0
BBX 10 10 0 0
BITMAP
0C00
0C00
1E00
1E00
3300
3300
3F00
6180
6180
F3C0
ENDCHAR
STARTCHAR afii10018
ENCODING 226
SWIDTH 1000 0
DWIDTH 10 0
BBX 8 10 1 0
BITMAP
FF
63
60
60
7E
63
63
63
63
FE
ENDCHAR
STARTCHAR afii10040
ENCODING 227
SWIDTH 833 0
DWIDTH 10 0
BBX 10 12 0 -2
BITMAP
F3C0
6180
6180
6180
6180
6180
6180
6180
6180
FFC0
00C0
00C0
ENDCHAR
STARTCHAR afii10021
ENCODING 228
SWIDTH 833 0
DWIDTH 10 0
BBX 9 12 1 -2
BITMAP
7F80
3300
3300
3300
3300
3300
3300
3300
6300
FF80
C180
C180
ENDCHAR
STARTCHAR afii10022
ENCODING 229
SWIDTH 1000 0
DWIDTH 10 0
BBX 8 10 1 0
BITMAP
FF
63
60
6C
7C
6C
60
60
63
FF
ENDCHAR
STARTCHAR afii10038
ENCODING 230
SWIDTH 833 0
DWIDTH 10 0
BBX 10 12 0 0
BITMAP
1E00
0C00
3F00
6D80
CCC0
CCC0
CCC0
CCC0
6D80
3F00
0C00
1E00
ENDCHAR
STARTCHAR afii10020
ENCODING 231
SWIDTH 1000 0
DWIDTH 10 0
BBX 8 10 1 0
BITMAP
FF
63
60
60
60
60
60
60
60
F0
ENDCHAR
STARTCHAR afii10039
ENCODING 232
SWIDTH 1000 0
DWIDTH 10 0
BBX 10 10 0 0
BITMAP
F3C0
6180
3300
1E00
0C00
0C00
1E00
3300
6180
F3C0
ENDCHAR
STARTCHAR afii10026
ENCODING 233
SWIDTH 1000 0
DWIDTH 10 0
BBX 10 10 0 0
BITMAP
F3C0
6180
6180
6380
6780
6D80
7980
7180
6180
F3C0
ENDCHAR
STARTCHAR afii10027
ENCODING 234
SWIDTH 833 0
DWIDTH 10 0
BBX 10 12 0 0
BITMAP
3F00
1E00
F3C0
6180
6180
6380
6780
6D80
7980
7180
6180
F3C0
ENDCHAR
STARTCHAR afii10028
ENCODING 235
SWIDTH 1000 0
DWIDTH 10 0
BBX 9 10 1 0
BITMAP
FF00
6600
6C00
6C00
7800
7800
6C00
6600
6300
F380
ENDCHAR
STARTCHAR afii10029
ENCODING 236
SWIDTH 1000 0
DWIDTH 10 0
BBX 10 10 0 0
BITMAP
7FC0
3180
3180
3180
3180
3180
3180
3180
F180
E3C0
ENDCHAR
STARTCHAR afii10030
ENCODING 237
SWIDTH 1000 0
DWIDTH 10 0
BBX 10 10 0 0
BITMAP
E1C0
6180
7380
7380
7F80
7F80
6D80
6D80
6180
F3C0
ENDCHAR
STARTCHAR afii10031
ENCODING 238
SWIDTH 1000 0
DWIDTH 10 0
BBX 10 10 0 0
BITMAP
F3C0
6180
6180
6180
7F80
6180
6180
6180
6180
F3C0
ENDCHAR
STARTCHAR afii10032
ENCODING 239
SWIDTH 1000 0
DWIDTH 10 0
BBX 8 10 1 0
BITMAP
3C
66
C3
C3
C3
C3
C3
C3
66
3C
ENDCHAR
STARTCHAR afii10033
ENCODING 240
SWIDTH 1000 0
DWIDTH 10 0
BBX 10 10 0 0
BITMAP
FFC0
6180
6180
6180
6180
6180
6180
6180
6180
F3C0
ENDCHAR
STARTCHAR afii10049
ENCODING 241
SWIDTH 1000 0
DWIDTH 10 0
BBX 9 10 1 0
BITMAP
3F80
6300
6300
6300
6300
3F00
1B00
3300
6300
E780
ENDCHAR
STARTCHAR afii10034
ENCODING 242
SWIDTH 1000 0
DWIDTH 10 0
BBX 8 10 1 0
BITMAP
FE
63
63
63
63
7E
60
60
60
F8
ENDCHAR
STARTCHAR afii10035
ENCODING 243
SWIDTH 1000 0
DWIDTH 10 0
BBX 8 10 1 0
BITMAP
3F
67
C3
C3
C0
C0
C0
C0
63
3E
ENDCHAR
STARTCHAR afii10036
ENCODING 244
SWIDTH 1000 0
DWIDTH 10 0
BBX 10 10 0 0
BITMAP
FFC0
CCC0
0C00
0C00
0C00
0C00
0C00
0C00
0C00
3F00
ENDCHAR
STARTCHAR afii10037
ENCODING 245
SWIDTH 1000 0
DWIDTH 10 0
BBX 10 10 0 0
BITMAP
F3C0
6180
6180
3300
3300
1E00
1E00
0C00
6C00
3800
ENDCHAR
STARTCHAR afii10024
ENCODING 246
SWIDTH 1000 0
DWIDTH 10 0
BBX 10 10 0 0
BITMAP
EDC0
6D80
6D80
3F00
1E00
3F00
3F00
6D80
6D80
EDC0
ENDCHAR
STARTCHAR afii10019
ENCODING 247
SWIDTH 1000 0
DWIDTH 10 0
BBX 8 10 1 0
BITMAP
FE
63
63
63
7E
63
63
63
63
FE
ENDCHAR
STARTCHAR afii10046
ENCODING 248
SWIDTH 1000 0
DWIDTH 10 0
BBX 8 10 1 0
BITMAP
F0
60
60
60
7E
63
63
63
63
FE
ENDCHAR
STARTCHAR afii10045
ENCODING 249
SWIDTH 1000 0
DWIDTH 10 0
BBX 10 10 0 0
BITMAP
F3C0
6180
6180
6180
7D80
6780
6780
6780
6780
FFC0
ENDCHAR
STARTCHAR afii10025
ENCODING 250
SWIDTH 1000 0
DWIDTH 10 0
BBX 8 10 1 0
BITMAP
FE
E3
C3
03
3E
03
03
03
C3
7E
ENDCHAR
STARTCHAR afii10042
ENCODING 251
SWIDTH 1000 0
DWIDTH 10 0
BBX 10 10 0 0
BITMAP
FFC0
6D80
6D80
6D80
6D80
6D80
6D80
6D80
6D80
FFC0
ENDCHAR
STARTCHAR afii10047
ENCODING 252
SWIDTH 1000 0
DWIDTH 10 0
BBX 8 10 1 0
BITMAP
3C
66
C3
03
3F
03
03
C3
66
3C
ENDCHAR
STARTCHAR afii10043
ENCODING 253
SWIDTH 833 0
DWIDTH 10 0
BBX 10 12 0 -2
BITMAP
FFC0
6D80
6D80
6D80
6D80
6D80
6D80
6D80
6D80
FFC0
00C0
00C0
ENDCHAR
STARTCHAR afii10041
ENCODING 254
SWIDTH 1000 0
DWIDTH 10 0
BBX 10 10 0 0
BITMAP
F3C0
6180
6180
6180
6180
6380
3F80
0180
0180
03C0
ENDCHAR
STARTCHAR afii10044
ENCODING 255
SWIDTH 1000 0
DWIDTH 10 0
BBX 8 10 1 0
BITMAP
F8
F0
F0
30
3E
33
33
33
33
7E
ENDCHAR
ENDFONT
